<svg width="25" height="19" viewBox="0 0 25 19" fill="none" xmlns="http://www.w3.org/2000/svg">
<path d="M20.5618 2.36428C18.9849 1.68391 17.3203 1.20124 15.6104 0.928589C15.3764 1.3228 15.1647 1.7284 14.9761 2.14368C13.1547 1.88501 11.3025 1.88501 9.48107 2.14368C9.29242 1.72844 9.0807 1.32285 8.84681 0.928589C7.13579 1.20354 5.47006 1.68736 3.89164 2.36783C0.758091 6.73716 -0.0913666 10.998 0.333362 15.1983C2.16845 16.4761 4.22244 17.4479 6.40604 18.0714C6.89772 17.4482 7.3328 16.787 7.70665 16.0949C6.99657 15.845 6.31121 15.5366 5.65852 15.1734C5.8303 15.056 5.9983 14.935 6.16064 14.8176C8.05983 15.6593 10.1327 16.0958 12.2314 16.0958C14.3302 16.0958 16.403 15.6593 18.3022 14.8176C18.4664 14.9439 18.6344 15.0649 18.8043 15.1734C18.1504 15.5372 17.4638 15.8462 16.7524 16.0967C17.1258 16.7885 17.5609 17.4491 18.053 18.0714C20.2385 17.4504 22.2941 16.4791 24.1295 15.2001C24.6278 10.3291 23.2781 6.10738 20.5618 2.36428ZM8.24464 12.6151C7.06107 12.6151 6.08324 11.6028 6.08324 10.3575C6.08324 9.11219 7.02709 8.09101 8.24087 8.09101C9.45465 8.09101 10.4249 9.11219 10.4042 10.3575C10.3834 11.6028 9.45087 12.6151 8.24464 12.6151ZM16.2182 12.6151C15.0328 12.6151 14.0587 11.6028 14.0587 10.3575C14.0587 9.11219 15.0025 8.09101 16.2182 8.09101C17.4339 8.09101 18.3966 9.11219 18.3758 10.3575C18.3551 11.6028 17.4244 12.6151 16.2182 12.6151Z"/>
</svg>
