<svg viewBox="0 0 25 24" fill="none" xmlns="http://www.w3.org/2000/svg">
<path fill-rule="evenodd" clip-rule="evenodd" d="M12.8524 0.685059C6.23651 0.685059 0.888184 6.01839 0.888184 12.6165C0.888184 17.8906 4.31504 22.3551 9.069 23.9352C9.66337 24.054 9.88108 23.6785 9.88108 23.3626C9.88108 23.086 9.86149 22.1379 9.86149 21.15C6.53333 21.8613 5.84027 19.7277 5.84027 19.7277C5.30541 18.3449 4.51292 17.9895 4.51292 17.9895C3.42361 17.2586 4.59227 17.2586 4.59227 17.2586C5.80059 17.3377 6.43463 18.4834 6.43463 18.4834C7.5041 20.3006 9.22745 19.7871 9.92076 19.471C10.0197 18.7006 10.3368 18.1672 10.6736 17.871C8.01912 17.5944 5.22631 16.5672 5.22631 11.9842C5.22631 10.6805 5.70141 9.61379 6.45423 8.78421C6.33545 8.48797 5.91937 7.263 6.57325 5.62348C6.57325 5.62348 7.58345 5.30736 9.86125 6.84821C10.8365 6.58704 11.8422 6.45418 12.8524 6.45306C13.8626 6.45306 14.8924 6.59148 15.8434 6.84821C18.1214 5.30736 19.1316 5.62348 19.1316 5.62348C19.7855 7.263 19.3692 8.48797 19.2504 8.78421C20.023 9.61379 20.4786 10.6805 20.4786 11.9842C20.4786 16.5672 17.6857 17.5745 15.0114 17.871C15.4474 18.2463 15.8235 18.9573 15.8235 20.0834C15.8235 21.6834 15.8039 22.9675 15.8039 23.3624C15.8039 23.6785 16.0219 24.054 16.616 23.9355C21.37 22.3549 24.7968 17.8906 24.7968 12.6165C24.8164 6.01839 19.4485 0.685059 12.8524 0.685059Z" />
</svg>
