<svg width="25" height="21" viewBox="0 0 25 21" fill="none" xmlns="http://www.w3.org/2000/svg">
<path d="M21.7105 5.58689C21.725 5.79714 21.725 6.00738 21.725 6.21956C21.725 12.6848 16.8089 20.1411 7.81954 20.1411V20.1372C5.16405 20.1411 2.56373 19.3796 0.328247 17.9437C0.714376 17.9902 1.10244 18.0135 1.49147 18.0144C3.69212 18.0164 5.82986 17.2771 7.56115 15.9159C5.46986 15.8762 3.63599 14.511 2.99534 12.5181C3.72792 12.6596 4.48276 12.6305 5.2018 12.4338C2.9218 11.9726 1.28147 9.9671 1.28147 7.63797C1.28147 7.61665 1.28147 7.59631 1.28147 7.57596C1.96083 7.95478 2.72147 8.16503 3.49954 8.18828C1.35212 6.75146 0.690183 3.89139 1.98696 1.65527C4.46825 4.71202 8.12921 6.57029 12.0592 6.76696C11.6653 5.06759 12.2034 3.28683 13.4731 2.09222C15.4415 0.239766 18.5373 0.334714 20.3876 2.3044C21.4821 2.08835 22.5312 1.68627 23.4911 1.11658C23.1263 2.24918 22.3628 3.21125 21.3428 3.8226C22.3115 3.70828 23.2579 3.44862 24.1492 3.05236C23.4931 4.03672 22.6666 4.89416 21.7105 5.58689Z"/>
</svg>
