<svg viewBox="0 0 430 51" fill="none" xmlns="http://www.w3.org/2000/svg">
<path d="M0.144531 28.7523L3.78089 34.9216L16.5781 13.2603L22.0326 22.5144H29.3054L16.5781 0.921631L0.144531 28.7523Z" fill="#F2F4F7"/>
<path d="M3.70605 34.9216H36.5732L40.2096 28.7522H14.6851L20.1396 19.4982L16.5033 13.3289L3.70605 34.9901V34.9216Z" fill="#E43A19"/>
<path d="M18.2516 22.5829L14.6152 28.7523H40.1397L23.7761 0.921631H16.5033L29.3006 22.5829H18.3215H18.2516Z" fill="#111F4D"/>
<path d="M74.7903 10.7926C74.1609 11.4781 73.3218 12.4378 72.2029 13.6031C71.084 14.7685 70.035 16.1394 68.8462 17.6475C67.6574 19.1555 66.3987 20.6636 65.2099 22.3088C64.0211 23.8854 62.9022 25.462 61.9231 26.9015H75.07V31.7685H54.7903V28.2039C55.4896 26.9015 56.3987 25.5305 57.4476 24.0225C58.4966 22.5144 59.6155 21.0064 60.7343 19.4983C61.8532 17.9902 62.9721 16.5507 64.091 15.1797C65.2099 13.8088 66.1889 12.5749 67.098 11.6152H55.3497V6.74829H74.7203V10.7926H74.7903Z"/>
<path d="M100.315 16.0024C99.5455 18.8129 98.7763 21.5548 97.9371 24.2282C97.098 26.9016 96.1889 29.3693 95.3497 31.7685H90.5245C89.8952 30.329 89.1959 28.6153 88.4966 26.7645C87.7973 24.9137 87.028 22.8572 86.3287 20.7322C85.6294 18.6072 84.8602 16.3451 84.1609 14.0145C83.4616 11.6838 82.7623 9.21609 82.063 6.81689H88.2868C88.5665 8.18786 88.9161 9.62738 89.3357 11.1354C89.7553 12.7121 90.1749 14.2887 90.5945 15.8653C91.014 17.5104 91.4336 19.0185 91.9231 20.5951C92.4126 22.1717 92.8322 23.5427 93.3217 24.7766C93.8112 23.3371 94.3008 21.7604 94.7903 20.2524C95.2798 18.7443 95.6994 17.0992 96.1189 15.5911C96.5385 14.0145 96.9581 12.5064 97.3077 10.9983C97.6574 9.49028 98.007 8.11931 98.2868 6.81689H102.832C103.112 8.11931 103.462 9.49028 103.811 10.9983C104.161 12.5064 104.58 14.0145 104.93 15.5911C105.35 17.1677 105.769 18.7443 106.259 20.2524C106.748 21.829 107.238 23.3371 107.727 24.7766C108.147 23.4742 108.566 22.1032 109.056 20.5951C109.546 19.0871 109.965 17.5104 110.385 15.8653C110.804 14.2887 111.224 12.7121 111.643 11.1354C112.063 9.55883 112.413 8.11931 112.692 6.81689H118.776C118.077 9.28464 117.378 11.6838 116.678 14.0145C115.979 16.3451 115.21 18.6072 114.511 20.7322C113.811 22.8572 113.042 24.9137 112.343 26.7645C111.643 28.6153 110.944 30.329 110.245 31.7685H105.42C104.58 29.4379 103.671 26.9016 102.832 24.2282C101.923 21.5548 101.084 18.8129 100.385 16.0024H100.315Z"/>
<path d="M132.762 31.7685H126.888V6.19995H132.762V31.7685Z"/>
<path d="M143.671 7.57097C144.79 7.22823 146.329 6.95404 148.077 6.67985C149.895 6.40565 151.923 6.26855 154.161 6.26855C156.259 6.26855 158.007 6.54275 159.406 7.09114C160.804 7.63952 161.923 8.4621 162.762 9.42178C163.601 10.45 164.161 11.6153 164.511 13.0548C164.86 14.4944 165 16.0024 165 17.7161V31.7686H159.126V18.6073C159.126 17.2363 159.056 16.1395 158.846 15.1798C158.636 14.2202 158.357 13.4661 157.937 12.9177C157.518 12.3008 156.958 11.8895 156.259 11.6153C155.559 11.3411 154.72 11.204 153.671 11.204C152.902 11.204 152.133 11.204 151.364 11.3411C150.594 11.4782 149.965 11.5468 149.546 11.6153V31.7686H143.671V7.57097V7.57097Z"/>
</svg>
