<svg viewBox="0 0 430 51" fill="none" xmlns="http://www.w3.org/2000/svg">
<path d="M0 41.746L5.35184 51L24.1862 18.5081L32.214 32.3891H42.9177L24.1862 0L0 41.746Z" fill="#F2F4F7"/>
<path d="M5.45459 51H53.827L59.1789 41.7459H21.613L29.6408 27.8649L24.289 18.6108L5.45459 51.1028V51Z" fill="#E43A19"/>
<path d="M26.8621 32.4919L21.5103 41.746H59.0761L34.9928 0H24.2891L43.1235 32.4919H26.965H26.8621Z" fill="#111F4D"/>
<path d="M105.905 16.0405C105.287 16.6575 104.67 17.48 103.846 18.4054C103.023 19.3308 102.199 20.3591 101.376 21.4901C100.553 22.6212 99.6265 23.855 98.7002 25.0889C97.7739 26.3228 96.8476 27.6595 96.0243 28.8933C95.098 30.23 94.2746 31.4639 93.4512 32.8006C92.6279 34.1373 91.9074 35.2683 91.2899 36.3994H106.316V39.5869H86.9673V37.1192C87.4819 36.0909 88.0994 34.9599 88.9228 33.726C89.6432 32.4921 90.4666 31.2583 91.2899 29.9216C92.1133 28.5849 93.0396 27.351 93.8629 26.0143C94.7892 24.6776 95.6126 23.4438 96.5389 22.2099C97.4651 20.976 98.2885 19.845 99.1119 18.8167C99.9352 17.7885 100.656 16.8631 101.376 16.0405H87.6877V12.853H105.905V15.8349V16.0405Z" />
<path d="M138.324 21.6957C137.295 25.0888 136.163 28.2763 135.031 31.2582C133.899 34.1372 132.87 37.0162 131.737 39.7924H128.032C126.694 35.8852 125.459 31.7723 124.43 27.3509C123.401 22.9295 122.475 18.3025 121.548 13.1614H125.459C125.768 15.115 126.18 17.1715 126.591 19.1251C127.003 21.0787 127.415 23.0323 127.826 24.986C128.238 26.9396 128.65 28.6876 129.062 30.3327C129.473 32.0807 129.885 33.6231 130.297 35.0626C131.326 32.3892 132.458 29.4073 133.59 26.2198C134.722 23.0323 135.854 19.6392 136.781 16.2461H139.971C141 19.6392 142.029 23.0323 143.264 26.2198C144.397 29.4073 145.529 32.3892 146.558 35.0626C146.97 33.6231 147.381 32.0807 147.793 30.3327C148.205 28.5848 148.616 26.8368 149.028 24.986C149.44 23.1352 149.851 21.1815 150.16 19.1251C150.572 17.0686 150.881 15.115 151.292 13.1614H155.1C154.174 18.3025 153.248 23.0323 152.116 27.3509C151.086 31.6694 149.851 35.8852 148.513 39.7924H144.808C143.676 37.0162 142.544 34.1372 141.515 31.2582C140.486 28.3791 139.354 25.1916 138.324 21.6957Z" />
<path d="M164.26 16.1432C163.643 16.1432 163.025 15.9375 162.614 15.5262C162.202 15.1149 161.893 14.498 161.893 13.7782C161.893 13.0585 162.099 12.4416 162.614 12.0303C163.025 11.619 163.643 11.4133 164.26 11.4133C164.878 11.4133 165.495 11.619 165.907 12.0303C166.319 12.4416 166.627 13.0585 166.627 13.7782C166.627 14.498 166.422 15.0121 165.907 15.5262C165.495 15.9375 164.878 16.1432 164.26 16.1432ZM166.113 39.6895H162.511V19.742H166.113V39.6895Z" />
<path d="M175.17 20.359C175.993 20.1534 177.125 19.9477 178.463 19.7421C179.801 19.5364 181.345 19.4336 183.198 19.4336C184.741 19.4336 186.079 19.6392 187.109 20.1534C188.138 20.5646 188.961 21.1816 189.579 22.0042C190.196 22.8267 190.608 23.7521 190.917 24.8832C191.225 26.0142 191.328 27.2481 191.328 28.5848V39.7925H187.726V29.3046C187.726 28.0707 187.726 27.0425 187.52 26.1171C187.314 25.2945 187.109 24.5747 186.697 23.9578C186.285 23.4437 185.771 23.0324 185.153 22.8267C184.536 22.6211 183.712 22.4154 182.786 22.4154C182.374 22.4154 181.963 22.4154 181.551 22.4154C181.139 22.4154 180.728 22.4154 180.419 22.4154C180.007 22.4154 179.698 22.4154 179.39 22.5183C179.081 22.5183 178.875 22.5183 178.772 22.6211V39.484H175.17V20.0505V20.359Z" />
<path d="M213.147 10.5908L216.75 9.97388V39.1755C215.926 39.3811 214.897 39.5868 213.559 39.8952C212.324 40.1009 210.78 40.2037 209.134 40.2037C207.59 40.2037 206.252 39.9981 205.017 39.484C203.782 38.9698 202.752 38.3529 201.826 37.4275C201.003 36.5021 200.282 35.4739 199.768 34.1372C199.253 32.8005 199.047 31.361 199.047 29.8186C199.047 28.2763 199.253 26.8368 199.665 25.6029C200.077 24.369 200.591 23.238 201.415 22.3126C202.135 21.3872 203.164 20.6674 204.193 20.1533C205.223 19.6392 206.561 19.4336 208.001 19.4336C209.134 19.4336 210.163 19.5364 211.089 19.8448C212.015 20.1533 212.633 20.4618 213.044 20.7702V10.6936L213.147 10.5908ZM213.147 24.0606C213.147 24.0606 212.118 23.3408 211.295 23.0323C210.471 22.7239 209.545 22.5182 208.619 22.5182C207.59 22.5182 206.766 22.7239 205.943 23.0323C205.223 23.4436 204.605 23.9577 204.193 24.5747C203.782 25.1916 203.37 26.0142 203.164 26.9396C202.958 27.865 202.855 28.7904 202.855 29.8186C202.855 32.1836 203.473 33.9315 204.605 35.1654C205.737 36.3993 207.281 37.0162 209.236 37.0162C210.163 37.0162 210.986 37.0162 211.707 36.9134C212.324 36.9134 212.839 36.7077 213.25 36.6049V23.9577L213.147 24.0606Z" />
<path d="M243.612 29.7159C243.612 31.2583 243.406 32.6978 242.891 34.0345C242.377 35.3712 241.759 36.3994 240.936 37.3248C240.112 38.2502 239.083 38.97 237.951 39.4841C236.819 39.9982 235.584 40.2038 234.143 40.2038C232.702 40.2038 231.57 39.9982 230.335 39.4841C229.203 38.97 228.174 38.2502 227.35 37.3248C226.527 36.3994 225.909 35.2683 225.395 34.0345C224.88 32.8006 224.674 31.3611 224.674 29.7159C224.674 28.0708 224.88 26.7341 225.395 25.3974C225.806 24.0607 226.527 23.0325 227.35 22.1071C228.174 21.1817 229.203 20.4619 230.335 19.9478C231.467 19.4337 232.702 19.228 234.143 19.228C235.584 19.228 236.716 19.4337 237.951 19.9478C239.083 20.4619 240.112 21.1817 240.936 22.1071C241.759 23.0325 242.377 24.1635 242.891 25.3974C243.303 26.7341 243.612 28.0708 243.612 29.7159ZM239.906 29.7159C239.906 27.4538 239.392 25.7058 238.363 24.3692C237.333 23.0325 235.996 22.4155 234.246 22.4155C232.496 22.4155 231.158 23.0325 230.129 24.3692C229.1 25.7058 228.585 27.4538 228.585 29.7159C228.585 31.978 229.1 33.726 230.129 35.0627C231.158 36.3994 232.496 37.0163 234.246 37.0163C235.996 37.0163 237.333 36.3994 238.363 35.0627C239.392 33.726 239.906 31.978 239.906 29.7159Z" />
<path d="M267.695 39.7923C266.974 37.9415 266.254 35.885 265.431 33.5201C264.607 31.1552 263.887 28.6875 263.269 26.1169C262.652 28.6875 261.828 31.1552 261.108 33.5201C260.285 35.885 259.564 38.0443 258.844 39.7923H255.756C254.624 37.1189 253.389 34.1371 252.257 30.7439C251.125 27.3508 250.096 23.752 249.066 19.8447H252.874C253.183 21.0786 253.389 22.3125 253.801 23.752C254.212 25.1915 254.521 26.5282 254.933 27.9677C255.345 29.4072 255.756 30.7439 256.168 32.0806C256.58 33.4173 256.991 34.5484 257.403 35.4738C257.815 34.2399 258.226 33.006 258.638 31.6693C259.05 30.3326 259.461 28.9959 259.873 27.5564C260.285 26.1169 260.593 24.883 261.005 23.5463C261.314 22.2096 261.623 20.9758 261.931 19.8447H264.916C265.122 20.9758 265.431 22.2096 265.739 23.5463C266.048 24.883 266.46 26.2197 266.769 27.5564C267.077 28.8931 267.592 30.3326 268.004 31.6693C268.415 33.006 268.827 34.2399 269.342 35.4738C269.753 34.5484 270.165 33.3145 270.577 32.0806C270.988 30.7439 271.4 29.4072 271.812 27.9677C272.223 26.5282 272.635 25.1915 272.944 23.752C273.356 22.3125 273.561 21.0786 273.87 19.8447H277.575C276.546 23.752 275.517 27.4536 274.385 30.7439C273.253 34.1371 272.12 37.1189 270.885 39.7923H267.798H267.695Z" />
<path d="M300.321 37.1191C304.232 37.1191 306.187 35.7824 306.187 33.109C306.187 32.2864 305.981 31.5667 305.672 31.0525C305.364 30.4356 304.849 30.0243 304.232 29.5102C303.614 29.0989 302.997 28.6876 302.173 28.3791C301.453 28.0707 300.629 27.7622 299.806 27.4537C298.88 27.1453 297.953 26.734 297.027 26.3227C296.101 25.9114 295.38 25.3973 294.763 24.7804C294.145 24.1634 293.631 23.5465 293.219 22.7239C292.807 21.9013 292.705 20.9759 292.705 19.8449C292.705 17.48 293.528 15.732 295.072 14.3953C296.616 13.0586 298.88 12.4417 301.659 12.4417C303.305 12.4417 304.746 12.6473 306.084 12.9558C307.422 13.2642 308.348 13.6755 308.966 14.0868L307.731 17.0687C307.216 16.7602 306.393 16.4517 305.364 16.0404C304.335 15.6291 303.099 15.5263 301.659 15.5263C300.938 15.5263 300.321 15.5263 299.703 15.732C299.086 15.9376 298.571 16.1433 298.056 16.4517C297.645 16.7602 297.233 17.1715 296.924 17.5828C296.616 18.0969 296.513 18.611 296.513 19.2279C296.513 19.9477 296.616 20.5646 296.924 21.0787C297.233 21.5929 297.645 22.0042 298.159 22.3126C298.674 22.6211 299.291 23.0324 299.909 23.3408C300.629 23.6493 301.35 23.9578 302.173 24.2662C303.305 24.6775 304.335 25.1917 305.364 25.6029C306.29 26.0142 307.113 26.6312 307.834 27.2481C308.554 27.865 309.069 28.6876 309.481 29.5102C309.892 30.4356 310.098 31.4638 310.098 32.6977C310.098 35.0626 309.275 36.8106 307.525 38.0445C305.775 39.2783 303.408 39.8953 300.321 39.8953C299.291 39.8953 298.262 39.8953 297.439 39.6896C296.616 39.484 295.792 39.3812 295.072 39.1755C294.351 38.9699 293.837 38.7642 293.322 38.5586C292.807 38.3529 292.396 38.1473 292.19 38.0445L293.322 34.9598C293.94 35.2683 294.763 35.6796 295.998 36.0908C297.233 36.5021 298.674 36.7078 300.424 36.7078L300.321 37.1191Z" />
<path d="M315.45 43.4939C315.45 43.4939 316.067 43.6996 316.582 43.9052C316.994 44.008 317.508 44.1109 317.92 44.1109C319.361 44.1109 320.39 43.8024 321.213 43.1855C322.037 42.5685 322.757 41.5403 323.375 40.1008C321.728 37.0161 320.287 33.7258 318.846 30.3326C317.405 26.9395 316.273 23.4435 315.347 19.8447H319.155C319.464 20.9758 319.773 22.2096 320.184 23.5463C320.596 24.883 321.008 26.2197 321.522 27.6592C322.037 29.0988 322.551 30.4355 323.066 31.875C323.581 33.3145 324.198 34.6512 324.816 35.9879C325.742 33.3145 326.668 30.6411 327.389 27.9677C328.109 25.2943 328.83 22.6209 329.447 19.8447H333.152C332.226 23.6492 331.197 27.248 330.065 30.7439C328.932 34.2399 327.697 37.4274 326.462 40.5121C325.948 41.6431 325.433 42.6713 324.816 43.4939C324.301 44.3165 323.684 45.0363 322.963 45.5504C322.243 46.0645 321.522 46.4758 320.699 46.7842C319.875 46.9899 318.949 47.1955 317.92 47.1955C317.611 47.1955 317.302 47.1955 316.994 47.1955C316.685 47.1955 316.376 47.1955 316.067 46.9899C315.759 46.9899 315.553 46.8871 315.244 46.7842C314.935 46.6814 314.832 46.6814 314.729 46.5786L315.347 43.6996L315.45 43.4939Z" />
<path d="M344.782 37.2219C346.223 37.2219 347.355 37.0163 348.076 36.605C348.796 36.1937 349.105 35.5768 349.105 34.7542C349.105 33.9316 348.796 33.2119 348.076 32.6977C347.355 32.1836 346.223 31.5667 344.679 30.9498C343.856 30.6413 343.135 30.3328 342.518 30.0244C341.797 29.7159 341.18 29.3046 340.665 28.8933C340.151 28.482 339.739 27.9679 339.43 27.351C339.122 26.734 339.019 26.0143 339.019 25.0889C339.019 23.3409 339.636 21.9014 340.974 20.8731C342.312 19.8449 344.062 19.3308 346.326 19.3308C346.841 19.3308 347.458 19.3308 347.973 19.3308C348.487 19.3308 349.105 19.4336 349.516 19.5365C350.031 19.5365 350.443 19.7421 350.752 19.8449C351.163 19.8449 351.369 20.0506 351.575 20.1534L350.957 23.2381C350.957 23.2381 349.928 22.8268 349.105 22.6211C348.281 22.4155 347.252 22.3127 346.12 22.3127C345.091 22.3127 344.268 22.5183 343.547 22.9296C342.827 23.3409 342.415 23.9578 342.415 24.7804C342.415 25.1917 342.415 25.603 342.621 25.9115C342.827 26.2199 343.032 26.5284 343.444 26.8369C343.753 27.1453 344.268 27.351 344.679 27.5566C345.091 27.7623 345.811 28.0707 346.532 28.2764C347.458 28.6877 348.281 28.9961 349.105 29.3046C349.928 29.6131 350.443 30.0244 351.06 30.5385C351.575 30.9498 351.987 31.5667 352.295 32.1836C352.604 32.8006 352.707 33.6231 352.707 34.5486C352.707 36.3994 351.987 37.7361 350.649 38.7643C349.311 39.6897 347.355 40.2038 344.782 40.2038C343.032 40.2038 341.592 40.101 340.665 39.7925C339.636 39.484 339.019 39.2784 338.607 39.0727L339.224 35.9881C339.224 35.9881 340.254 36.3994 341.18 36.7078C342.106 37.0163 343.238 37.1191 344.782 37.1191V37.2219Z" />
<path d="M364.337 19.7421H371.953V22.7239H364.337V31.978C364.337 33.0062 364.337 33.8288 364.542 34.4457C364.748 35.0626 364.954 35.5767 365.263 35.988C365.572 36.3993 365.983 36.605 366.395 36.8106C366.807 37.0163 367.424 37.0163 368.042 37.0163C369.071 37.0163 369.997 36.9134 370.615 36.605C371.232 36.3993 371.747 36.1937 371.953 36.0909L372.673 39.0727C372.673 39.0727 371.644 39.484 370.821 39.7925C369.894 40.1009 368.865 40.2038 367.733 40.2038C366.395 40.2038 365.263 39.9981 364.337 39.6896C363.41 39.3812 362.69 38.8671 362.175 38.1473C361.661 37.4276 361.249 36.605 361.043 35.5767C360.837 34.5485 360.734 33.4175 360.734 32.0808V14.2925L364.337 13.6755V19.8449V19.7421Z" />
<path d="M378.025 29.8187C378.025 28.0707 378.334 26.5284 378.849 25.1917C379.363 23.855 380.084 22.8268 380.907 21.9014C381.73 21.0788 382.76 20.359 383.789 19.9477C384.921 19.5365 386.053 19.3308 387.185 19.3308C389.861 19.3308 391.92 20.1534 393.36 21.7986C394.801 23.4437 395.522 26.0143 395.522 29.5102V30.1272C395.522 30.1272 395.522 30.6413 395.522 30.8469H381.833C381.936 32.9034 382.554 34.4457 383.686 35.5768C384.715 36.605 386.362 37.2219 388.626 37.2219C389.861 37.2219 390.89 37.1191 391.817 36.9135C392.64 36.7078 393.36 36.5022 393.772 36.2965L394.287 39.2784C394.287 39.2784 393.052 39.7925 392.023 39.9982C390.89 40.2038 389.655 40.4094 388.317 40.4094C386.568 40.4094 385.024 40.101 383.789 39.5869C382.554 39.0727 381.525 38.353 380.701 37.4276C379.878 36.5022 379.26 35.3711 378.849 34.1373C378.437 32.9034 378.231 31.4639 378.231 29.9215L378.025 29.8187ZM391.714 27.8651C391.714 26.2199 391.302 24.8832 390.479 23.855C389.655 22.8268 388.523 22.3127 387.082 22.3127C386.259 22.3127 385.539 22.5183 384.921 22.8268C384.304 23.1352 383.789 23.5465 383.274 24.0606C382.76 24.5748 382.451 25.1917 382.245 25.8086C382.039 26.4256 381.833 27.1453 381.731 27.8651H391.611H391.714Z" />
<path d="M402.829 20.359C403.652 20.1534 404.681 19.9477 406.122 19.7421C407.563 19.5364 409.004 19.4336 410.754 19.4336C411.989 19.4336 413.121 19.6392 413.944 19.9477C414.768 20.2562 415.591 20.7703 416.105 21.49C416.311 21.3872 416.517 21.1816 416.929 20.9759C417.34 20.7703 417.752 20.5646 418.37 20.2562C418.987 19.9477 419.605 19.8449 420.222 19.6392C420.943 19.4336 421.663 19.4336 422.486 19.4336C424.03 19.4336 425.265 19.6392 426.295 20.1534C427.221 20.5646 428.044 21.2844 428.559 22.107C429.073 22.9296 429.485 23.855 429.691 24.986C429.897 26.1171 430 27.3509 430 28.6876V39.8953H426.397V29.4074C426.397 28.2763 426.397 27.2481 426.192 26.4255C426.089 25.6029 425.883 24.8832 425.574 24.2663C425.265 23.7521 424.854 23.238 424.236 23.0324C423.722 22.7239 423.001 22.6211 422.075 22.6211C420.84 22.6211 419.914 22.8267 419.09 23.1352C418.267 23.4437 417.752 23.7521 417.443 23.9578C417.649 24.5747 417.855 25.3973 417.855 26.1171C417.855 26.8368 417.958 27.7622 417.958 28.5848V39.7925H414.356V29.3046C414.356 28.1735 414.356 27.1453 414.15 26.3227C414.047 25.5001 413.841 24.7804 413.43 24.1634C413.018 23.5465 412.709 23.1352 412.092 22.9296C411.577 22.6211 410.857 22.5183 410.033 22.5183C409.621 22.5183 409.313 22.5183 408.901 22.5183C408.489 22.5183 408.078 22.5183 407.769 22.5183C407.357 22.5183 407.049 22.5183 406.74 22.6211C406.431 22.6211 406.225 22.6211 406.122 22.7239V39.5868H402.52V20.1534L402.829 20.359Z" />
</svg>
